<?xml version="1.0" encoding="UTF-8"?>
<svg width="240px" height="240px" viewBox="0 0 240 240" version="1.1" xmlns="http://www.w3.org/2000/svg" xmlns:xlink="http://www.w3.org/1999/xlink">
    <defs>
        <linearGradient x1="33.7879238%" y1="100%" x2="33.7879238%" y2="0%" id="linearGradient-1">
            <stop stop-color="#92ABD7" offset="0%"></stop>
            <stop stop-color="#93ACD8" offset="67.1944225%"></stop>
            <stop stop-color="#DDE6F4" offset="100%"></stop>
        </linearGradient>
        <polygon id="path-2" points="55.6223176 39.8503818 113.304721 27.7437126 113.304721 130.498204 59.6070557 115.618373"></polygon>
        <linearGradient x1="33.7879238%" y1="124.914444%" x2="33.7879238%" y2="-14.9207842%" id="linearGradient-3">
            <stop stop-color="#92ABD7" offset="0%"></stop>
            <stop stop-color="#DDE6F4" offset="100%"></stop>
        </linearGradient>
        <polygon id="path-4" points="112.274678 49.2758152 112.274678 27.7437126 181.287554 34.92297 123.979895 51.3772455"></polygon>
        <filter x="-1.4%" y="-4.2%" width="102.9%" height="116.9%" filterUnits="objectBoundingBox" id="filter-5">
            <feOffset dx="0" dy="2" in="SourceAlpha" result="shadowOffsetOuter1"></feOffset>
            <feColorMatrix values="0 0 0 0 0.247420715   0 0 0 0 0.339189888   0 0 0 0 0.519198653  0 0 0 1 0" type="matrix" in="shadowOffsetOuter1"></feColorMatrix>
        </filter>
        <linearGradient x1="33.7879238%" y1="154.422046%" x2="33.7879238%" y2="0%" id="linearGradient-6">
            <stop stop-color="#92ABD7" offset="0%"></stop>
            <stop stop-color="#DDE6F4" offset="100%"></stop>
        </linearGradient>
        <path d="M121.543192,50.3497006 L121.196857,137.691018 L53.5622318,120.25555 L53.5622318,65.8826774 L121.545064,50.3497006 L121.543192,50.3497006 Z M75.931755,79.5206161 C74.5464135,79.3491869 73.1573276,80.2100596 72.9813517,81.5908102 C72.807248,82.9696972 73.6740225,84.3523111 75.0612363,84.5256037 L97.2585278,88.4926991 C98.6438693,88.6659916 100.034827,87.8032556 100.207059,86.4243684 C100.379291,85.0417546 99.5143882,83.6610041 98.1290466,83.4914382 L75.931755,79.5206161 L75.931755,79.5206161 Z" id="path-7"></path>
        <linearGradient x1="43.0345206%" y1="113.090249%" x2="43.0345206%" y2="-16.6761594%" id="linearGradient-8">
            <stop stop-color="#92ABD7" offset="0%"></stop>
            <stop stop-color="#DDE6F4" offset="100%"></stop>
        </linearGradient>
        <polygon id="path-9" points="183.347639 116.629 183.347639 63.2928818 121.545064 50.3497006 121.545064 137.691018"></polygon>
        <linearGradient x1="33.7879238%" y1="100%" x2="33.7879238%" y2="0%" id="linearGradient-10">
            <stop stop-color="#92ABD7" offset="0%"></stop>
            <stop stop-color="#DDE6F4" offset="100%"></stop>
        </linearGradient>
        <path d="M54.4693674,40.0742515 L39.6540784,60.829428 C38.3706068,62.6274813 38.7877577,65.1255508 40.585811,66.4090224 C41.0487584,66.7394797 41.5768589,66.9674046 42.1348748,67.0775888 L100.455166,78.5933461 C102.067393,78.9116918 103.710286,78.2115677 104.597306,76.8281603 L121.545064,50.3962184 L121.545064,50.3962184 L54.4693674,40.0742515 Z" id="path-11"></path>
        <filter x="-1.2%" y="-2.6%" width="103.5%" height="110.2%" filterUnits="objectBoundingBox" id="filter-12">
            <feOffset dx="1" dy="2" in="SourceAlpha" result="shadowOffsetOuter1"></feOffset>
            <feColorMatrix values="0 0 0 0 0.895200955   0 0 0 0 0.915633914   0 0 0 0 0.947742849  0 0 0 1 0" type="matrix" in="shadowOffsetOuter1"></feColorMatrix>
        </filter>
        <linearGradient x1="33.7879238%" y1="100%" x2="33.7879238%" y2="0%" id="linearGradient-13">
            <stop stop-color="#92ABD7" offset="0%"></stop>
            <stop stop-color="#DDE6F4" offset="100%"></stop>
        </linearGradient>
        <path d="M195.583113,53.9457597 L181.249118,34.9365269 L181.249118,34.9365269 L121.545064,50.5788488 L138.752197,75.2519633 C139.763571,76.7021617 141.607048,77.3163517 143.286103,76.7625221 L193.642321,60.1527275 C195.740279,59.4607247 196.880031,57.1990146 196.188028,55.1010568 C196.050945,54.6854601 195.846591,54.2951755 195.583113,53.9457597 Z" id="path-14"></path>
        <filter x="-2.7%" y="-2.4%" width="104.0%" height="109.6%" filterUnits="objectBoundingBox" id="filter-15">
            <feOffset dx="-1" dy="2" in="SourceAlpha" result="shadowOffsetOuter1"></feOffset>
            <feColorMatrix values="0 0 0 0 0.895200955   0 0 0 0 0.915633914   0 0 0 0 0.947742849  0 0 0 1 0" type="matrix" in="shadowOffsetOuter1"></feColorMatrix>
        </filter>
        <path d="M145.236052,92.2570967 C145.236052,91.5381629 145.712732,90.906369 146.404051,90.7090263 L165.276916,85.3216088 C165.762737,85.1829269 166.268997,85.4643393 166.407679,85.950161 C166.430991,86.031826 166.442817,86.1163395 166.442817,86.2012667 C166.442817,86.9199989 165.969037,87.5527142 165.279363,87.755015 L151.251368,91.8698207 C150.139479,92.1959689 149.022005,92.5027668 147.899453,92.7900752 L146.412777,93.1705784 C145.908275,93.2997018 145.39462,92.9953972 145.265496,92.4908952 C145.245944,92.4145002 145.236052,92.3359542 145.236052,92.2570967 Z M145.236052,101.52751 C145.236052,100.770508 145.732728,100.103184 146.457874,99.885895 L160.984029,95.5331473 C161.484462,95.3831931 162.011705,95.6673122 162.161659,96.1677451 C162.188055,96.2558344 162.201464,96.3473021 162.201464,96.4392612 C162.201464,97.195514 161.710377,97.864168 160.988769,98.0904416 L149.844731,101.584861 C148.833709,101.901885 147.812173,102.184353 146.781904,102.431772 L146.476287,102.505166 C145.936343,102.634833 145.393515,102.302238 145.263848,101.762294 C145.245381,101.685398 145.236052,101.606592 145.236052,101.52751 Z M145.236052,110.060651 C145.236052,109.333742 145.713781,108.69326 146.410531,108.486051 L172.902774,100.607403 C173.386594,100.463518 173.895449,100.739089 174.039334,101.222909 C174.064481,101.307466 174.077253,101.395219 174.077253,101.483436 C174.077253,102.210345 173.599524,102.850827 172.902774,103.058036 L146.410531,110.936684 C145.926711,111.080569 145.417856,110.804998 145.273971,110.321178 C145.248824,110.236621 145.236052,110.148868 145.236052,110.060651 Z" id="path-16"></path>
        <filter x="-6.9%" y="-3.9%" width="113.9%" height="115.6%" filterUnits="objectBoundingBox" id="filter-17">
            <feOffset dx="0" dy="1" in="SourceAlpha" result="shadowOffsetOuter1"></feOffset>
            <feGaussianBlur stdDeviation="0.5" in="shadowOffsetOuter1" result="shadowBlurOuter1"></feGaussianBlur>
            <feColorMatrix values="0 0 0 0 0   0 0 0 0 0   0 0 0 0 0  0 0 0 0.199292163 0" type="matrix" in="shadowBlurOuter1"></feColorMatrix>
        </filter>
    </defs>
    <g id="空状态-404" stroke="none" stroke-width="1" fill="none" fill-rule="evenodd">
        <g id="状态" transform="translate(-170.000000, -249.000000)">
            <g id="空状态" transform="translate(170.000000, 249.000000)">
                <rect id="矩形" x="0" y="0" width="240" height="240"></rect>
                <g id="编组-9" transform="translate(0.000000, 24.000000)" fill-rule="nonzero">
                    <path d="M46.219693,144.512854 C43.8651873,143.875755 40.9997552,141.226051 41.6132143,137.58398 C41.9174593,135.777719 43.0851846,134.608473 44.2959797,133.852419 C45.9707555,132.806651 47.8781343,132.412572 49.7162517,132.313015 C51.8363987,132.198177 53.95418,132.487727 56.058489,132.793933 C58.1358852,133.096229 60.2134475,133.366904 62.3001249,133.532166 C70.4653254,134.173785 78.6804501,133.562695 86.6615222,131.720019 C88.6313336,131.264619 90.5893352,130.730361 92.5355271,130.117245 C94.3797712,129.573441 96.1828683,128.898305 97.9310424,128.096994 C100.244882,126.984111 104.00776,124.818527 103.700936,120.807855 C103.538244,118.681287 102.288172,116.982838 101.027263,115.799546 C99.5026606,114.368792 97.7384942,113.427435 96.0106141,112.513301 C87.9735208,108.261211 79.9207387,104.059602 71.875818,99.8331176 C69.9982235,98.8467081 68.1081459,97.8867191 66.2859288,96.730765 C64.5798848,95.6485064 62.8818249,94.3913487 61.5088794,92.6530883 C60.3097197,91.1348493 59.2381685,89.0966474 59.2759747,86.8182524 C59.307326,84.9287275 60.1656352,83.3253087 61.2168476,82.126967 C63.8194431,79.1600954 67.5010473,77.957171 70.8284816,77.3270677 C74.9624631,76.5442285 79.156287,76.5482779 83.2929684,75.792353 C86.6330859,75.1819824 90.2019795,74.0036817 92.9184505,71.2425347 C94.0675619,70.1194561 94.8803263,68.6968643 95.2649494,67.1354282 C95.6118075,65.5000126 95.4432054,63.7970485 94.782431,62.2617558 C94.0465817,60.5009521 92.8728018,59.0982892 91.6385828,57.949719 C90.2208014,56.648696 88.6128073,55.5724684 86.8703294,54.7583358 C83.2014934,53.0068697 79.3435245,52.0949405 75.5854621,50.7508497 C73.7424227,50.091676 71.880738,49.368852 70.1693605,48.2366214 C68.7194622,47.2773777 67.1400354,45.9844031 66.3333805,44.0616411 C64.6690508,40.0945264 68.6395755,37.730178 70.8893925,36.8346036 C72.418579,36.2535626 73.9936525,35.8018411 75.5981,35.4841747 C75.9373476,35.4112037 75.7934046,34.7328099 75.4557486,34.805431 C73.7668801,35.1352874 72.1117289,35.6194603 70.5110474,36.2518792 C69.154342,36.8165882 67.7544971,37.5587232 66.6888116,38.8357857 C65.7075754,40.0018775 65.26663,41.5304747 65.4757076,43.0411755 C65.757975,44.9446341 66.9849762,46.4113029 68.1373393,47.4736416 C69.6612132,48.8784682 71.3986915,49.7959164 73.1603244,50.5437803 C75.0156486,51.3314179 76.9103422,51.9452535 78.8044015,52.5473607 C82.5891388,53.7504932 86.5436745,54.8226822 89.9602596,57.3828633 C92.3502739,59.1738041 95.5970568,62.5317228 94.8020487,66.6939212 C94.4491398,68.5415428 93.3774602,69.9860863 92.2209587,71.0485612 C90.8628364,72.2595227 89.2966479,73.2135506 87.5985023,73.8642838 C80.0273192,76.9167854 71.6947202,74.7338878 64.3186643,78.8798261 C61.8107588,80.2894662 58.7645555,82.8560061 58.7400348,86.8942383 C58.7273043,88.9920128 59.5666642,90.9159721 60.6043683,92.4366812 C61.8472435,94.2580732 63.456683,95.6049651 65.0941925,96.7306648 C66.8184117,97.8725745 68.6087313,98.9110076 70.4557172,99.8404921 C72.4734032,100.902214 74.4915323,101.9625 76.5101044,103.02135 L88.7598784,109.456903 L94.8462456,112.654414 C96.7038297,113.630313 98.6091185,114.566444 100.298078,115.999016 C101.680975,117.171996 103.314834,119.096341 103.173734,121.485852 C103.061684,123.383517 101.80332,124.752964 100.653449,125.668543 C99.1644835,126.854126 97.491875,127.620957 95.8276869,128.258185 C93.9081535,128.993172 91.9570573,129.602871 90.0021796,130.151053 C85.9978193,131.272296 81.9110136,132.073664 77.7801887,132.547623 C73.6596261,133.022913 69.5085186,133.177922 65.3640712,133.011259 C63.2700327,132.926837 61.1792453,132.759037 59.0917089,132.507857 C56.9399029,132.248208 54.7973063,131.848216 52.6399536,131.670754 C50.6885856,131.510234 48.7184211,131.547437 46.796709,132.063356 C45.1921272,132.494137 43.4969295,133.261985 42.2789148,134.760246 C41.3811568,135.904048 40.9315935,137.337102 41.0148153,138.789764 C41.0972805,140.23945 41.6132108,141.630745 42.4955231,142.782749 C43.39173,143.959358 44.6509883,144.806234 46.0773831,145.191621 C46.4137327,145.28263 46.5575813,144.604285 46.2197346,144.512877 L46.219693,144.512854 Z" id="路径" fill="#B6C7E5" transform="translate(72.361809, 90.000000) scale(-1, 1) translate(-72.361809, -90.000000) "></path>
                    <g id="空状态" transform="translate(0.000000, 20.400000)">
                        <g id="编组-16" transform="translate(0.000000, 102.754491)" opacity="0.5">
                            <path d="M0,34.4199679 C0,53.4321412 53.7246742,68.845509 120.001877,68.845509 C186.275326,68.845509 240,53.4339993 240,34.4218258 C240,15.4133682 186.271571,0 120.001877,0 C53.728429,-0.00371517983 0,15.4115103 0,34.4199679 Z" id="路径" fill="#D7E1F2"></path>
                            <path d="M41.2017167,25.6886227 C41.2017167,38.1748552 76.4798802,48.2946108 119.999062,48.2946108 C163.52012,48.2946108 198.798283,38.1748554 198.798283,25.6886227 C198.798283,13.2061051 163.52012,3.08263473 120.000938,3.08263473 C76.4780034,3.08263473 41.2017167,13.2023901 41.2017167,25.6886227 Z" id="路径" fill="#BFCEE8"></path>
                        </g>
                        <g id="路径">
                            <use fill="#D1DBF2" xlink:href="#path-2"></use>
                            <use fill="url(#linearGradient-1)" xlink:href="#path-2"></use>
                        </g>
                        <g id="路径">
                            <use fill="black" fill-opacity="1" filter="url(#filter-5)" xlink:href="#path-4"></use>
                            <use fill="#D1DBF2" xlink:href="#path-4"></use>
                            <use fill="url(#linearGradient-3)" xlink:href="#path-4"></use>
                        </g>
                        <g id="形状">
                            <use fill="#D1DBF2" xlink:href="#path-7"></use>
                            <use fill="url(#linearGradient-6)" xlink:href="#path-7"></use>
                        </g>
                        <g id="路径">
                            <use fill="#D1DBF2" xlink:href="#path-9"></use>
                            <use fill="url(#linearGradient-8)" xlink:href="#path-9"></use>
                        </g>
                        <g id="路径">
                            <use fill="black" fill-opacity="1" filter="url(#filter-12)" xlink:href="#path-11"></use>
                            <use fill="#D1DBF2" xlink:href="#path-11"></use>
                            <use fill="url(#linearGradient-10)" xlink:href="#path-11"></use>
                        </g>
                        <g id="形状">
                            <use fill="black" fill-opacity="1" filter="url(#filter-15)" xlink:href="#path-14"></use>
                            <use fill="#D1DBF2" xlink:href="#path-14"></use>
                            <use fill="url(#linearGradient-13)" xlink:href="#path-14"></use>
                        </g>
                        <g id="形状">
                            <use fill="black" fill-opacity="1" filter="url(#filter-17)" xlink:href="#path-16"></use>
                            <use fill="#FFFFFF" xlink:href="#path-16"></use>
                        </g>
                        <path d="M101.97425,2.5716331 C101.975268,3.48873855 102.478643,4.33565097 103.29476,4.79334662 C104.110876,5.25104226 105.115747,5.24998629 105.930848,4.79057646 C106.745948,4.33116663 107.247444,3.48319824 107.246429,2.56609279 C107.244857,1.14837067 106.063366,0.000320089271 104.607495,0.00184847637 C103.151624,0.00337991811 101.972681,1.15391098 101.97425,2.5716331 Z M114.272833,2.5716331 C114.274406,3.9893553 115.455896,5.13740599 116.911768,5.1358776 C118.367639,5.13434616 119.546582,3.98381499 119.545013,2.56609279 C119.54344,1.14837059 118.361949,0.000319905061 116.906078,0.00184829221 C115.450207,0.00337973399 114.271264,1.1539109 114.272833,2.5716331 Z M126.56952,2.5716331 C126.570538,3.4893984 127.074274,4.33692055 127.890977,4.79494613 C128.707681,5.25297171 129.713275,5.25191573 130.528962,4.79217597 C131.344649,4.33243622 131.846507,3.48385809 131.845492,2.56609279 C131.843919,1.14735065 130.66158,-0.00152686506 129.204661,1.5231798e-06 C127.747743,0.00153296386 126.56795,1.15289096 126.56952,2.5716331 L126.56952,2.5716331 Z" id="形状" fill="#C2D1E9"></path>
                    </g>
                    <g id="编组-26" transform="translate(41.005025, 0.000000)">
                        <path d="M39.9333552,8.3909613 L2.13955655,0.1384045 L1.64839085,0.0314077222 C1.13797211,-0.0808076536 0.609165859,0.112840647 0.287816734,0.529648557 C-0.03353239,0.946456467 -0.0906216577,1.51274764 0.140930837,1.98666825 L15.1466157,32.8327456 C15.3436846,33.2349175 15.7215958,33.5150135 16.1598655,33.5837345 C16.5996806,33.6529912 17.0449661,33.4984395 17.3502585,33.1705676 L27.7728519,22.0462762 C27.9227397,21.8822564 28.133506,21.78908 28.3542365,21.7892555 C28.6566466,21.7849358 28.9367582,21.949792 29.0826561,22.2179581 L31.2175032,26.2150341 C31.4979219,26.7634226 32.1113126,27.0479573 32.7047496,26.904926 L32.7153756,26.9025459 C33.3162169,26.7737223 33.7517952,26.2452237 33.7693053,25.6237851 L34.1969598,16.3971105 C34.2020568,16.2819901 34.2304615,16.1691567 34.2804128,16.0656062 C34.3340354,15.9631269 34.4068141,15.8721677 34.4947048,15.7977827 L40.5075824,10.8015243 C40.9108744,10.4664417 41.0893686,9.92743593 40.9670637,9.41401136 C40.8447587,8.90058679 40.4431939,8.50316352 39.9333525,8.3909613 L39.9333552,8.3909613 Z M40.1642019,10.3767896 L34.1513406,15.37307 C34.0729911,15.4369572 34.0019926,15.5095661 33.9396853,15.5895262 L2.07124471,0.959664277 C2.0431371,0.94642694 2.01381441,0.93601263 1.9836979,0.928570961 C1.73009901,0.862407026 1.46590052,0.988411243 1.35484583,1.22848945 C1.24379115,1.46856766 1.31736082,1.75466512 1.52995828,1.90946602 L27.7329494,21.3929836 C27.5999797,21.4629625 27.4799268,21.5556272 27.3780676,21.6669047 L16.9555965,32.7911356 C16.7720395,32.9866416 16.505715,33.0790659 16.2422658,33.0386874 C15.9788166,32.9983089 15.7514608,32.8302189 15.6333097,32.5884705 L0.627633024,1.74239311 C0.490765036,1.45803722 0.525983152,1.11958255 0.718375873,0.870332207 C0.910768595,0.621081865 1.22668471,0.504631975 1.53236401,0.570287908 L2.0351941,0.68027845 L39.8171979,8.92986901 C40.1233035,8.99695333 40.3646184,9.23520564 40.438504,9.54328994 C40.5123895,9.85137425 40.4058508,10.175105 40.1642019,10.3767896 L40.1642019,10.3767896 Z" id="形状" fill="#A5BADE"></path>
                        <path d="M39.9333552,8.3909613 L2.13955655,0.1384045 L1.64839085,0.0314077222 C1.13797211,-0.0808076536 0.609165859,0.112840647 0.287816734,0.529648557 C-0.03353239,0.946456467 -0.0906216577,1.51274764 0.140930837,1.98666825 L15.1466157,32.8327456 C15.3436846,33.2349175 15.7215958,33.5150135 16.1598655,33.5837345 C16.5996806,33.6529912 17.0449661,33.4984395 17.3502585,33.1705676 L27.7728519,22.0462762 C27.9227397,21.8822564 28.133506,21.78908 28.3542365,21.7892555 C28.6566466,21.7849358 28.9367582,21.949792 29.0826561,22.2179581 L31.2175032,26.2150341 C31.4979219,26.7634226 32.1113126,27.0479573 32.7047496,26.904926 L32.7153756,26.9025459 C33.3162169,26.7737223 33.7517952,26.2452237 33.7693053,25.6237851 L34.1969598,16.3971105 C34.2020568,16.2819901 34.2304615,16.1691567 34.2804128,16.0656062 C34.3340354,15.9631269 34.4068141,15.8721677 34.4947048,15.7977827 L40.5075824,10.8015243 C40.9108744,10.4664417 41.0893686,9.92743593 40.9670637,9.41401136 C40.8447587,8.90058679 40.4431939,8.50316352 39.9333525,8.3909613 L39.9333552,8.3909613 Z M40.1642019,10.3767896 L34.1513406,15.37307 C34.0729911,15.4369572 34.0019926,15.5095661 33.9396853,15.5895262 C33.8834978,15.6606595 33.8349792,15.7376659 33.7949556,15.8192343 C33.7530162,15.9026554 33.7199627,15.990356 33.6963533,16.0808557 L33.6969432,16.083544 C33.6720302,16.1778112 33.6576678,16.2746151 33.6541266,16.3721312 L33.2265972,25.5987756 C33.219206,25.9724469 32.9569592,26.2910332 32.5952006,26.3658174 L32.5898862,26.3670089 C32.2335763,26.4566016 31.8631863,26.2863353 31.6953626,25.9558012 L29.5599284,21.956045 C29.3362376,21.5377519 28.9145925,21.2664624 28.445483,21.2390029 L28.4428897,21.2395835 C28.4118436,21.2381086 28.3809116,21.2365732 28.3505858,21.2377262 C28.1352942,21.2378262 27.9232809,21.2911212 27.7329548,21.3929836 C27.5999851,21.4629625 27.4799323,21.5556272 27.378073,21.6669047 L16.9556019,32.7911356 C16.7720449,32.9866416 16.5057205,33.0790659 16.2422713,33.0386874 C15.978822,32.9983089 15.7514662,32.8302189 15.6333151,32.5884705 L0.627633024,1.74239311 C0.490765036,1.45803722 0.525983152,1.11958255 0.718375873,0.870332207 C0.910768595,0.621081865 1.22668471,0.504631975 1.53236401,0.570287908 L2.0351941,0.68027845 L39.8171979,8.92986901 C40.1233035,8.99695333 40.3646184,9.23520564 40.438504,9.54328994 C40.5123895,9.85137425 40.4058508,10.175105 40.1642019,10.3767896 L40.1642019,10.3767896 Z" id="形状" fill="#3F3D56"></path>
                        <path d="M33.8291457,15.4239965 L33.6042412,15.9140938 L33.4653001,15.8535231 L33.4647094,15.8508945 L1.5756457,1.55990975 L28.2036781,20.8949871 L28.2062751,20.8944195 L28.2767815,20.94789 L27.9557134,21.3818182 L27.4927178,21.0449705 L1.25198056,1.99439755 C1.03907685,1.8430365 0.965401187,1.56329643 1.07661585,1.32855301 C1.18783052,1.0938096 1.45240959,0.970605332 1.7063738,1.03529903 C1.73653369,1.04257534 1.76589862,1.05275823 1.79404672,1.06570142 L33.7083947,15.3704722 L33.8291457,15.4239965 Z" id="路径" fill="#3F3D56"></path>
                    </g>
                </g>
            </g>
        </g>
    </g>
</svg>