<svg version="1.1" xmlns="http://www.w3.org/2000/svg" width="133" height="32" viewBox="0 0 133 32">
<path fill="#fff" d="M51.336 16.064c-1.152 0-2.273 0.374-3.197 1.066v-0.897c0-0.093-0.075-0.168-0.168-0.168h-2.069c-0.093 0-0.168 0.075-0.168 0.168v13.827c0 0.093 0.075 0.168 0.168 0.168h2.069c0.093 0 0.168-0.075 0.168-0.168v-4.327c1.867 1.398 4.421 1.425 6.317 0.068s2.7-3.787 1.987-6.011c-0.713-2.224-2.778-3.73-5.108-3.726v0zM51.336 24.322c-1.593-0.002-2.883-1.298-2.881-2.894s1.293-2.89 2.886-2.889c1.593 0.001 2.884 1.295 2.884 2.892-0.001 0.767-0.305 1.503-0.847 2.046s-1.276 0.847-2.042 0.846v0z"></path>
<path fill="#fff" d="M65.102 23.452c-0.017 0.020-0.035 0.042-0.055 0.063-0.54 0.53-1.271 0.817-2.027 0.796-0.754 0.026-1.487-0.258-2.027-0.787-0.231-0.229-0.416-0.5-0.544-0.8-0.058-0.133-0.105-0.271-0.14-0.412-0.008-0.020-0.008-0.043 0-0.063 0.011-0.019 0.030-0.031 0.052-0.035h7.823c0 0 0.153 0 0.168-0.127 0 0 0.035-0.307 0.035-0.619-0.004-0.486-0.066-0.969-0.184-1.44-0.121-0.434-0.297-0.851-0.523-1.241-0.472-0.825-1.159-1.506-1.988-1.968-0.83-0.477-1.77-0.727-2.727-0.724-2.928 0.054-5.273 2.449-5.273 5.384s2.345 5.329 5.273 5.384c0.959 0.009 1.904-0.236 2.738-0.711 0.702-0.404 1.3-0.967 1.745-1.645 0.007-0.010 0.009-0.024 0.005-0.035s-0.013-0.021-0.025-0.026c-0.24-0.116-0.485-0.22-0.728-0.329l-1.468-0.659c-0.029-0.018-0.083-0.057-0.129-0.006zM61.004 19.443c1.145-1.053 2.903-1.057 4.053-0.009 0.179 0.17 0.328 0.368 0.442 0.587 0.021 0.036 0.039 0.074 0.055 0.113 0.024 0.079-0.035 0.079-0.035 0.079h-4.974c0 0-0.072 0-0.037-0.072s0.074-0.14 0.114-0.207c0.106-0.179 0.234-0.344 0.381-0.491v0z"></path>
<path fill="#fff" d="M73.997 16.102c-1.185-0.001-2.322 0.47-3.16 1.309s-1.31 1.978-1.311 3.165v6.053c0 0.102 0.082 0.185 0.184 0.185h2.224c0.102 0 0.184-0.083 0.184-0.185v-6.053c0-1.044 0.845-1.891 1.887-1.891s1.887 0.847 1.887 1.891v6.053c0 0.102 0.082 0.185 0.184 0.185h2.224c0.102 0 0.184-0.083 0.184-0.185v-6.053c-0.001-1.19-0.475-2.331-1.316-3.171s-1.982-1.309-3.17-1.304v0z"></path>
<path fill="#fff" d="M85.357 26.903c-1.411 0.001-2.765-0.56-3.763-1.559s-1.56-2.356-1.561-3.77v-8.125c0.001-0.119 0.097-0.214 0.216-0.214h2.647c0.118 0 0.215 0.096 0.216 0.214v8.125c0 1.243 1.005 2.251 2.246 2.251s2.246-1.008 2.246-2.251v-8.125c0.001-0.119 0.097-0.214 0.216-0.214h2.647c0.118 0 0.215 0.096 0.216 0.214v8.125c-0.001 1.414-0.563 2.771-1.561 3.77s-2.352 1.56-3.763 1.559z"></path>
<path fill="#fff" d="M39.086 16.099c-2.172 0-4.13 1.312-4.96 3.323s-0.37 4.326 1.166 5.865c1.537 1.539 3.847 1.998 5.853 1.163s3.313-2.798 3.31-4.975c-0.002-2.97-2.405-5.377-5.369-5.375v0zM39.086 24.185c-1.491 0-2.7-1.211-2.701-2.706s1.207-2.707 2.698-2.708c1.491-0.001 2.701 1.209 2.703 2.703 0.001 0.719-0.282 1.409-0.789 1.917s-1.195 0.794-1.912 0.794v0z"></path>
<path fill="#fff" d="M103.209 17.329c0 1.269-0.63 2.013-1.551 2.438 1.73 0.432 2.522 1.45 2.522 3.052 0 2.709-1.999 4.085-4.862 4.085h-6.474c-0.159 0-0.287-0.129-0.287-0.288v-13.081c0.001-0.16 0.13-0.289 0.289-0.29h5.501c2.863 0.002 4.862 1.376 4.862 4.085zM95.346 16.289v2.079c0 0.159 0.129 0.288 0.287 0.288 1.38 0 1.677 0 2.751 0 1.734 0 2.047-0.75 2.045-1.33s-0.311-1.333-2.082-1.333h-2.712c-0.078 0-0.152 0.031-0.207 0.087s-0.084 0.131-0.083 0.209zM95.346 21.572v2.286c0 0.159 0.129 0.288 0.287 0.288h3.793c1.772 0 1.973-0.752 1.973-1.331s-0.203-1.538-1.934-1.538c-1.142 0-1.899 0-3.832 0-0.077 0.001-0.151 0.033-0.205 0.088s-0.084 0.13-0.083 0.207v0z"></path>
<path fill="#fff" d="M108.313 13.37l4.269 7.53 4.269-7.53c0.042-0.075 0.121-0.121 0.206-0.122h2.415c0.131 0 0.238 0.107 0.238 0.238v13.179c0 0.132-0.106 0.238-0.238 0.238h-2.316c-0.131 0-0.238-0.107-0.238-0.238v-7.776l-3.583 6.321c-0.041 0.074-0.12 0.12-0.204 0.12h-1.105c-0.085 0-0.164-0.046-0.206-0.12l-3.574-6.321v7.774c0 0.132-0.106 0.238-0.238 0.238h-2.316c-0.063 0-0.123-0.025-0.167-0.070s-0.069-0.105-0.068-0.168v-13.177c-0-0.063 0.024-0.124 0.068-0.168s0.105-0.070 0.167-0.070h2.412c0.087-0.001 0.168 0.046 0.21 0.122v0z"></path>
<path fill="#fff" d="M128.341 13.303c1.57 0 3.629 0.864 4.845 1.991 0.094 0.090 0.147 0.214 0.147 0.344s-0.053 0.255-0.147 0.344l-1.153 1.126c-0.178 0.175-0.461 0.181-0.647 0.015-0.781-0.728-2.056-1.274-3.053-1.274h-0.017c-1.516 0.003-2.916 0.816-3.671 2.134s-0.752 2.939 0.008 4.254c0.761 1.315 2.163 2.123 3.679 2.12 0.997 0 2.273-0.554 3.053-1.274 0.185-0.167 0.469-0.161 0.647 0.015l1.153 1.126c0.094 0.090 0.147 0.214 0.147 0.344s-0.053 0.255-0.147 0.344c-1.216 1.126-3.276 1.991-4.845 1.991-3.795 0-6.874-3.047-6.874-6.801s3.079-6.799 6.87-6.799h0.004z"></path>
<path fill="#fff" d="M0.293 19.157v-5.887c0-1.86 1.505-3.368 3.36-3.368s3.36 1.508 3.36 3.368v5.92c0 3.3 2.629 6.038 5.923 6.072 1.597 0.014 3.134-0.613 4.268-1.74s1.772-2.662 1.771-4.263v-5.989c0-1.86 1.505-3.368 3.36-3.368s3.36 1.508 3.36 3.368v5.989c0 7.036-5.689 12.74-12.709 12.742-6.983 0-12.696-5.843-12.696-12.843z"></path>
<path fill="#fff" d="M22.37 0c1.874 0 3.394 1.519 3.394 3.394v0.016c0 1.874-1.519 3.394-3.394 3.394s-3.394-1.519-3.394-3.394v-0.016c0-1.874 1.519-3.394 3.394-3.394z"></path>
<path fill="#fff" d="M3.84 0.024c-2.124 0.004-3.842 1.732-3.84 3.861s1.726 3.852 3.849 3.851c2.124-0.001 3.844-1.727 3.844-3.856 0-1.024-0.406-2.006-1.129-2.729s-1.703-1.129-2.725-1.127v0zM3.84 5.819c-1.068 0-1.934-0.868-1.934-1.939s0.866-1.939 1.934-1.939c1.068 0 1.934 0.868 1.934 1.939s-0.866 1.939-1.934 1.939v0z"></path>
</svg>
