<svg version="1.1" xmlns="http://www.w3.org/2000/svg" width="32" height="32" viewBox="0 0 32 32"><path opacity="0.8" fill="#000" d="M26.307 5.012c1.473 0 2.667 1.193 2.667 2.667v7.32c0 0.516-0.417 0.933-0.933 0.933s-0.933-0.417-0.933-0.933l-0.001-6.997-9.461 7.828c-0.999 0.825-2.445 0.815-3.431-0.025l-9.465-8.075v16.671c0 0.441 0.359 0.8 0.8 0.8h20.759c0.441 0 0.8-0.359 0.8-0.8v-5.395c0-0.516 0.417-0.933 0.933-0.933s0.933 0.417 0.933 0.933v5.395c0 1.473-1.193 2.667-2.667 2.667h-20.759c-1.473 0-2.667-1.193-2.667-2.667v-16.721c0-1.473 1.193-2.667 2.667-2.667h20.759zM25.533 6.879h-18.907l8.799 7.505c0.296 0.252 0.729 0.256 1.029 0.008l9.079-7.513z"></path></svg>