<svg version="1.1" xmlns="http://www.w3.org/2000/svg" width="39" height="32" viewBox="0 0 39 32">
<path fill="#848484" d="M11.204 0.232c-11.421 2.045-15.233 14.969-6.136 20.873 0.496 0.325 0.496 0.294-0.263 2.526l-0.635 1.906 2.309-1.224 2.293-1.24 1.224 0.294c1.286 0.325 2.929 0.542 4.013 0.542h0.651l-0.217-0.868c-1.798-6.601 4.401-13.141 12.459-13.141h1.1l-0.232-0.775c-1.767-6.198-9.236-10.196-16.565-8.895zM10.212 6.028c1.209 0.806 1.286 2.588 0.124 3.347-1.89 1.224-4.106-0.945-2.836-2.789 0.558-0.837 1.906-1.116 2.712-0.558zM19.943 6.028c1.999 1.333 0.511 4.432-1.736 3.58-1.612-0.62-1.798-2.836-0.294-3.626 0.604-0.325 1.519-0.31 2.030 0.046zM24.36 10.909c-5.672 1.038-9.592 5.331-9.375 10.274 0.294 6.617 8.058 11.173 15.496 9.127l0.883-0.232 1.844 0.992c1.023 0.558 1.875 0.961 1.906 0.914 0.016-0.062-0.186-0.759-0.449-1.581-0.589-1.829-0.604-1.705 0.201-2.278 8.941-6.415 1.085-19.308-10.506-17.216zM24.127 16.24c0.496 0.341 0.759 1.162 0.542 1.767-0.449 1.302-2.386 1.395-2.898 0.155-0.604-1.441 1.038-2.774 2.355-1.921zM32.061 16.395c0.775 0.744 0.651 2.014-0.263 2.479-1.395 0.713-2.867-0.713-2.154-2.076 0.48-0.868 1.705-1.085 2.417-0.403z"></path>
</svg>
