<svg width="32.000000" height="32.000000" viewBox="0 0 32 32" fill="none" xmlns="http://www.w3.org/2000/svg" xmlns:xlink="http://www.w3.org/1999/xlink">
	<desc>
			Created with Pixso.
	</desc>
	<defs/>
	<rect id="矩形" width="32.000000" height="32.000000" fill="#D8D8D8" fill-opacity="0"/>
	<rect id="矩形" x="0.500000" y="0.500000" width="31.000000" height="31.000000" stroke="#979797" stroke-opacity="0" stroke-width="1.000000"/>
	<path id="合并" d="M26.9332 5.60059C26.9332 4.20147 25.7991 3.06738 24.4 3.06738L7.59998 3.06738C6.20081 3.06738 5.06665 4.2016 5.06665 5.60072L5.06665 26.4007C5.06665 27.7998 6.20081 28.9341 7.59998 28.9341L12.677 28.9341C13.1925 28.9341 13.6104 28.5162 13.6104 28.0007C13.6104 27.4853 13.1925 27.0674 12.677 27.0674L7.59998 27.0674C7.23181 27.0674 6.93335 26.7689 6.93335 26.4007L6.93335 5.60072C6.93335 5.23253 7.23181 4.93405 7.59998 4.93405L24.4 4.93392C24.7682 4.93392 25.0667 5.2324 25.0667 5.60059L25.0667 12.0876C25.0667 12.603 25.4845 13.0205 25.9999 13.0205C26.5154 13.0205 26.9332 12.603 26.9332 12.0876L26.9332 5.60059ZM20.5023 8.51794C21.0178 8.51794 21.4357 8.93581 21.4357 9.45128C21.4357 9.92379 21.0845 10.3143 20.6289 10.3761L20.5023 10.3846L10.0483 10.3846C9.53284 10.3846 9.11499 9.96674 9.11499 9.45128C9.11499 8.97877 9.46606 8.58827 9.92163 8.52647L10.0483 8.51794L20.5023 8.51794ZM17.0634 13.7354C17.5789 13.7354 17.9967 14.1532 17.9967 14.6687C17.9967 15.1412 17.6456 15.5317 17.1901 15.5935L17.0634 15.602L10.048 15.602C9.53259 15.602 9.11462 15.1842 9.11462 14.6687C9.11462 14.1962 9.46582 13.8057 9.92139 13.7439L10.048 13.7354L17.0634 13.7354ZM27.0226 16.8631L25.7059 15.5314C25.0214 14.8546 23.924 14.8609 23.2509 15.5416L16.3683 22.5034C15.9695 22.9067 15.6962 23.417 15.5815 23.9725L15.1831 25.9022C15.1459 26.0821 15.1464 26.2677 15.1843 26.4474C15.3365 27.1679 16.0439 27.6286 16.7644 27.4764L18.6527 27.0775C19.2144 26.9588 19.7288 26.678 20.1324 26.2698L27.0226 19.3004C27.6902 18.6251 27.6902 17.5384 27.0226 16.8631ZM25.6035 18.0798L24.4835 16.9484L17.6957 23.8152C17.5507 23.9619 17.4513 24.1475 17.4095 24.3495L17.1758 25.4799L18.2668 25.2506C18.4199 25.2183 18.5635 25.1527 18.6876 25.0594L18.8049 24.9569L25.6035 18.0798ZM14.5566 19.8855C14.5566 19.37 14.1388 18.9521 13.6233 18.9521L10.0465 18.9521L9.9198 18.9607C9.46423 19.0225 9.11316 19.413 9.11316 19.8855C9.11316 20.4009 9.53101 20.8188 10.0465 20.8188L13.6233 20.8188L13.75 20.8103C14.2056 20.7485 14.5566 20.358 14.5566 19.8855Z" clip-rule="evenodd" fill="#000000" fill-opacity="0.800000" fill-rule="evenodd"/>
</svg>
